HIERARCHY
ROOT Hips
{
	OFFSET 0.000000 121.760803 0.000000
	CHANNELS 6 Xposition Yposition Zposition Xrotation Yrotation Zrotation 
	JOINT Spine
	{
		OFFSET 0.072000 7.257294 -0.789700
		CHANNELS 3 Xrotation Yrotation Zrotation
		JOINT Spine1
		{
			OFFSET 0.000000 12.508769 -0.658067
			CHANNELS 3 Xrotation Yrotation Zrotation
			JOINT Spine1_split
			{
				OFFSET 0.000000 12.508769 -0.658067
				CHANNELS 3 Xrotation Yrotation Zrotation
				JOINT Spine2
				{
					OFFSET 0.000000 12.508769 -0.658067
					CHANNELS 3 Xrotation Yrotation Zrotation
					JOINT Neck
					{
						OFFSET 0.000000 14.033295 7.520400
						CHANNELS 3 Xrotation Yrotation Zrotation
						JOINT Head
						{
							OFFSET 0.000000 8.198502 5.703100
							CHANNELS 3 Xrotation Yrotation Zrotation
							JOINT HeadTop_End
							{
								OFFSET 0.000000 17.760803 13.332701
								CHANNELS 3 Xrotation Yrotation Zrotation
								End Site
								{
									OFFSET 0.000000 0.000000 0.000000
								}
							}
						}
					}
					JOINT LeftShoulder
					{
						OFFSET 6.292450 5.785301 -0.669000
						CHANNELS 3 Xrotation Yrotation Zrotation
						JOINT LeftShoulder_split
						{
							OFFSET 6.292450 5.785301 -0.669000
							CHANNELS 3 Xrotation Yrotation Zrotation
							JOINT LeftArm
							{
								OFFSET 13.907140 -6.093903 1.965100
								CHANNELS 3 Xrotation Yrotation Zrotation
								JOINT LeftForeArm
								{
									OFFSET 34.140198 0.000000 0.000000
									CHANNELS 3 Xrotation Yrotation Zrotation
									JOINT LeftHand
									{
										OFFSET 40.960209 0.000000 0.000000
										CHANNELS 3 Xrotation Yrotation Zrotation
										JOINT LeftHandThumb1
										{
											OFFSET 10.006996 -7.170425 9.573125
											CHANNELS 3 Xrotation Yrotation Zrotation
											JOINT LeftHandThumb2
											{
												OFFSET 1.835007 -1.059448 1.059443
												CHANNELS 3 Xrotation Yrotation Zrotation
												JOINT LeftHandThumb3
												{
													OFFSET 2.112267 -1.219513 1.219518
													CHANNELS 3 Xrotation Yrotation Zrotation
													JOINT LeftHandThumb4
													{
														OFFSET 4.843811 -2.796570 2.796576
														CHANNELS 3 Xrotation Yrotation Zrotation
														End Site
														{
															OFFSET 0.000000 0.000000 0.000000
														}
													}
												}
											}
										}
										JOINT LeftHandIndex1
										{
											OFFSET 18.389847 -0.922348 4.596882
											CHANNELS 3 Xrotation Yrotation Zrotation
											JOINT LeftHandIndex2
											{
												OFFSET 4.711273 0.000000 0.000000
												CHANNELS 3 Xrotation Yrotation Zrotation
												JOINT LeftHandIndex3
												{
													OFFSET 2.886131 0.000000 0.000000
													CHANNELS 3 Xrotation Yrotation Zrotation
													JOINT LeftHandIndex4
													{
														OFFSET 6.145912 0.000000 0.000000
														CHANNELS 3 Xrotation Yrotation Zrotation
														End Site
														{
															OFFSET 0.000000 0.000000 0.000000
														}
													}
												}
											}
										}
										JOINT LeftHandMiddle1
										{
											OFFSET 18.013008 0.000000 0.000000
											CHANNELS 3 Xrotation Yrotation Zrotation
											JOINT LeftHandMiddle2
											{
												OFFSET 4.946693 0.000000 0.000000
												CHANNELS 3 Xrotation Yrotation Zrotation
												JOINT LeftHandMiddle3
												{
													OFFSET 3.342232 0.000000 0.000000
													CHANNELS 3 Xrotation Yrotation Zrotation
													JOINT LeftHandMiddle4
													{
														OFFSET 4.461754 0.000000 0.000000
														CHANNELS 3 Xrotation Yrotation Zrotation
														End Site
														{
															OFFSET 0.000000 0.000000 0.000000
														}
													}
												}
											}
										}
										JOINT LeftHandRing1
										{
											OFFSET 15.849892 -0.102921 -4.126150
											CHANNELS 3 Xrotation Yrotation Zrotation
											JOINT LeftHandRing2
											{
												OFFSET 3.527054 0.000000 0.000000
												CHANNELS 3 Xrotation Yrotation Zrotation
												JOINT LeftHandRing3
												{
													OFFSET 2.961098 0.000000 0.000000
													CHANNELS 3 Xrotation Yrotation Zrotation
													JOINT LeftHandRing4
													{
														OFFSET 4.927200 0.000000 0.000000
														CHANNELS 3 Xrotation Yrotation Zrotation
														End Site
														{
															OFFSET 0.000000 0.000000 0.000000
														}
													}
												}
											}
										}
										JOINT LeftHandPinky1
										{
											OFFSET 12.791824 -0.832031 -6.799156
											CHANNELS 3 Xrotation Yrotation Zrotation
											JOINT LeftHandPinky2
											{
												OFFSET 3.327133 0.000000 0.000000
												CHANNELS 3 Xrotation Yrotation Zrotation
												JOINT LeftHandPinky3
												{
													OFFSET 3.014900 0.000000 0.000000
													CHANNELS 3 Xrotation Yrotation Zrotation
													JOINT LeftHandPinky4
													{
														OFFSET 5.847786 0.000000 0.000000
														CHANNELS 3 Xrotation Yrotation Zrotation
														End Site
														{
															OFFSET 0.000000 0.000000 0.000000
														}
													}
												}
											}
										}
									}
								}
							}
						}
					}
					JOINT RightShoulder
					{
						OFFSET -6.292450 5.785301 -0.669000
						CHANNELS 3 Xrotation Yrotation Zrotation
						JOINT RightShoulder_split
						{
							OFFSET -6.292450 5.785301 -0.669000
							CHANNELS 3 Xrotation Yrotation Zrotation
							JOINT RightArm
							{
								OFFSET -13.907140 -6.093903 1.965100
								CHANNELS 3 Xrotation Yrotation Zrotation
								JOINT RightForeArm
								{
									OFFSET -34.140198 0.000000 0.000000
									CHANNELS 3 Xrotation Yrotation Zrotation
									JOINT RightHand
									{
										OFFSET -40.960209 0.000000 0.000000
										CHANNELS 3 Xrotation Yrotation Zrotation
										JOINT RightHandThumb1
										{
											OFFSET -10.007050 -7.170456 9.573117
											CHANNELS 3 Xrotation Yrotation Zrotation
											JOINT RightHandThumb2
											{
												OFFSET -1.835007 -1.059448 1.059443
												CHANNELS 3 Xrotation Yrotation Zrotation
												JOINT RightHandThumb3
												{
													OFFSET -2.112267 -1.219513 1.219518
													CHANNELS 3 Xrotation Yrotation Zrotation
													JOINT RightHandThumb4
													{
														OFFSET -4.843834 -2.796585 2.796590
														CHANNELS 3 Xrotation Yrotation Zrotation
														End Site
														{
															OFFSET 0.000000 0.000000 0.000000
														}
													}
												}
											}
										}
										JOINT RightHandIndex1
										{
											OFFSET -18.389870 -0.922424 4.596786
											CHANNELS 3 Xrotation Yrotation Zrotation
											JOINT RightHandIndex2
											{
												OFFSET -4.711273 0.000000 0.000000
												CHANNELS 3 Xrotation Yrotation Zrotation
												JOINT RightHandIndex3
												{
													OFFSET -2.886131 0.000000 0.000000
													CHANNELS 3 Xrotation Yrotation Zrotation
													JOINT RightHandIndex4
													{
														OFFSET -6.145920 0.000000 0.000000
														CHANNELS 3 Xrotation Yrotation Zrotation
														End Site
														{
															OFFSET 0.000000 0.000000 0.000000
														}
													}
												}
											}
										}
										JOINT RightHandMiddle1
										{
											OFFSET -18.013008 0.000000 0.000000
											CHANNELS 3 Xrotation Yrotation Zrotation
											JOINT RightHandMiddle2
											{
												OFFSET -4.946693 0.000000 0.000000
												CHANNELS 3 Xrotation Yrotation Zrotation
												JOINT RightHandMiddle3
												{
													OFFSET -3.342232 0.000000 0.000000
													CHANNELS 3 Xrotation Yrotation Zrotation
													JOINT RightHandMiddle4
													{
														OFFSET -4.461754 0.000000 0.000000
														CHANNELS 3 Xrotation Yrotation Zrotation
														End Site
														{
															OFFSET 0.000000 0.000000 0.000000
														}
													}
												}
											}
										}
										JOINT RightHandRing1
										{
											OFFSET -15.849876 -0.102936 -4.126237
											CHANNELS 3 Xrotation Yrotation Zrotation
											JOINT RightHandRing2
											{
												OFFSET -3.527054 0.000000 0.000000
												CHANNELS 3 Xrotation Yrotation Zrotation
												JOINT RightHandRing3
												{
													OFFSET -2.961098 0.000000 0.000000
													CHANNELS 3 Xrotation Yrotation Zrotation
													JOINT RightHandRing4
													{
														OFFSET -4.927200 0.000000 0.000000
														CHANNELS 3 Xrotation Yrotation Zrotation
														End Site
														{
															OFFSET 0.000000 0.000000 0.000000
														}
													}
												}
											}
										}
										JOINT RightHandPinky1
										{
											OFFSET -12.791786 -0.832077 -6.799222
											CHANNELS 3 Xrotation Yrotation Zrotation
											JOINT RightHandPinky2
											{
												OFFSET -3.327133 0.000000 0.000000
												CHANNELS 3 Xrotation Yrotation Zrotation
												JOINT RightHandPinky3
												{
													OFFSET -3.014900 0.000000 0.000000
													CHANNELS 3 Xrotation Yrotation Zrotation
													JOINT RightHandPinky4
													{
														OFFSET -5.847786 0.000000 0.000000
														CHANNELS 3 Xrotation Yrotation Zrotation
														End Site
														{
															OFFSET 0.000000 0.000000 0.000000
														}
													}
												}
											}
										}
									}
								}
							}
						}
					}
				}
			}
		}
	}
	JOINT LeftUpLeg
	{
		OFFSET 13.026900 -6.336304 -1.092800
		CHANNELS 3 Xrotation Yrotation Zrotation
		JOINT LeftLeg
		{
			OFFSET 0.524474 -46.096886 9.782700
			CHANNELS 3 Xrotation Yrotation Zrotation
			JOINT LeftFoot
			{
				OFFSET -0.524474 -53.427422 -12.948200
				CHANNELS 3 Xrotation Yrotation Zrotation
				JOINT LeftToeBase
				{
					OFFSET 0.192200 -14.009700 16.364100
					CHANNELS 3 Xrotation Yrotation Zrotation
					JOINT LeftToe_End
					{
						OFFSET -1.784700 -0.561700 9.474800
						CHANNELS 3 Xrotation Yrotation Zrotation
						End Site
						{
							OFFSET 0.000000 0.000000 0.000000
						}
					}
				}
			}
		}
	}
	JOINT RightUpLeg
	{
		OFFSET -12.883000 -6.336304 -1.092800
		CHANNELS 3 Xrotation Yrotation Zrotation
		JOINT RightLeg
		{
			OFFSET -0.524587 -46.096825 9.782800
			CHANNELS 3 Xrotation Yrotation Zrotation
			JOINT RightFoot
			{
				OFFSET 0.524587 -53.427383 -12.948300
				CHANNELS 3 Xrotation Yrotation Zrotation
				JOINT RightToeBase
				{
					OFFSET -0.192200 -14.009700 16.364100
					CHANNELS 3 Xrotation Yrotation Zrotation
					JOINT RightToe_End
					{
						OFFSET 1.784700 -0.561700 9.474800
						CHANNELS 3 Xrotation Yrotation Zrotation
						End Site
						{
							OFFSET 0.000000 0.000000 0.000000
						}
					}
				}
			}
		}
	}
}
MOTION
Frames: 4
Frame Time: 0.016667
0.521899 112.993591 1.452045 -2.795360 -0.922032 3.357543 -3.670021 2.019060 1.902691 1.825085 0.204638 -3.563413 0.000000 0.000000 0.000000 1.839735 0.222339 -3.555416 0.005326 -3.044289 -0.019016 5.669666 4.099741 0.112405 0.000000 -0.000000 0.000000 3.264881 -13.066459 -8.920288 0.000000 0.000000 0.000000 12.299512 32.230792 -77.872257 0.000014 -37.449507 0.000030 11.318190 5.111740 -3.307935 -6.694190 7.651332 20.042531 11.568894 23.611303 -7.394417 5.302253 8.249632 -3.166210 0.000001 0.000000 0.000001 -0.982647 -2.594473 -15.812755 0.762406 3.154210 -27.170294 0.348192 2.165898 -18.263677 -0.000000 -0.000000 0.000002 -0.144669 0.710061 -18.764159 0.628383 2.878562 -24.623962 0.506810 2.597294 -22.079278 -0.000000 -0.000000 -0.000000 0.773672 3.364644 -19.548510 1.234022 3.938343 -34.783619 0.010678 0.384133 -3.184745 0.000000 -0.000000 -0.000004 3.973832 12.688240 -18.446049 1.306902 -0.043995 -36.042724 0.763526 3.156403 -27.190741 0.000000 -0.000000 0.000002 1.454488 14.110507 8.503205 0.000000 0.000000 0.000000 54.678318 18.111655 70.211824 -0.000084 75.258767 0.000103 51.346360 35.160622 -70.815873 1.788491 4.679413 9.698154 4.637181 -8.634093 -0.225413 -7.859354 19.055190 -1.516527 -0.000000 -0.000000 -0.000000 8.183366 12.621741 -38.427939 0.272879 -1.932509 16.073513 0.241763 -1.821026 15.122718 0.000000 -0.000000 0.000001 3.398855 7.945791 -28.641167 0.564770 -2.749692 23.209755 2.103450 -0.073407 0.866154 0.000004 -0.000000 -0.000000 1.368570 4.899677 -20.505915 0.144614 -1.413639 11.682870 -0.719807 -0.402322 2.985522 -0.000000 -0.000000 0.000002 -3.372270 -9.628503 -18.358802 0.125287 -1.316615 10.870650 0.090303 -1.119375 9.226148 -0.000002 -0.000000 0.000001 -5.972696 1.112444 -17.398650 19.915877 9.862151 4.412760 -15.029580 15.704394 7.913258 -7.789674 -0.000003 -0.000002 -0.000001 0.000002 0.000000 -25.269948 -3.896590 -0.192924 24.554701 -9.775358 -3.131937 1.633199 -16.204540 -2.501961 -0.243008 -0.000014 0.000002 -0.000000 -0.000000 -0.000000 
0.532647 112.981544 1.492180 -2.794082 -0.937956 3.391470 -3.735952 2.039377 1.914113 1.845094 0.206904 -3.577331 0.000000 0.000000 0.000000 1.859860 0.224641 -3.569078 0.009548 -3.046895 -0.006452 5.643799 4.101381 0.127782 0.000000 0.000000 -0.000000 3.286007 -13.114651 -8.932847 0.000000 0.000000 0.000000 12.556908 32.167787 -77.897037 0.000018 -37.526798 0.000027 11.076589 5.115567 -3.368714 -6.692588 7.656137 20.048864 11.568523 23.610390 -7.394150 5.302385 8.249952 -3.166261 -0.000000 -0.000001 -0.000002 -0.984545 -2.600915 -15.814581 0.762405 3.154227 -27.170428 0.348201 2.165910 -18.263769 0.000002 -0.000000 0.000000 -0.143598 0.713503 -18.767058 0.628410 2.878619 -24.624463 0.506776 2.597207 -22.078508 -0.000000 -0.000001 -0.000002 0.775395 3.369367 -19.550050 1.233925 3.938207 -34.782233 0.010647 0.383572 -3.180084 0.000000 0.000000 -0.000001 3.968875 12.674949 -18.444741 1.307791 -0.042773 -36.055250 0.763508 3.156371 -27.190428 0.000000 0.000000 -0.000002 1.454900 14.140051 8.517079 0.000000 0.000000 0.000000 54.746633 17.804532 70.167961 -0.000007 75.583543 -0.000014 51.021274 35.499502 -69.947981 1.808286 4.619858 9.771590 4.631474 -8.617667 -0.226284 -7.965944 19.394892 -1.495135 -0.000006 0.000002 -0.000000 8.218623 12.665222 -38.428533 0.260941 -1.890584 15.715319 0.233612 -1.790664 14.864628 0.000003 0.000001 -0.000001 3.524993 8.091267 -29.060512 0.542001 -2.696011 22.730417 2.140628 -0.046547 0.553405 0.000003 0.000000 -0.000001 1.402244 4.961675 -20.710233 0.138310 -1.382717 11.423817 -0.722485 -0.369337 2.740184 -0.000002 -0.000001 -0.000000 -3.444543 -9.677826 -18.618952 0.124955 -1.314971 10.856914 0.089881 -1.116587 9.203011 0.000002 0.000000 -0.000000 -5.947889 1.096698 -17.443034 19.909955 9.862108 4.407770 -15.056191 15.719989 7.923401 -7.808565 -0.000007 0.000001 0.000000 -0.000000 0.000000 -25.294921 -3.884241 -0.220540 24.624285 -9.768819 -3.150714 1.591635 -16.208975 -2.479616 -0.216069 0.000002 -0.000001 -0.000000 -0.000000 -0.000000 
0.543228 112.971016 1.534738 -2.795388 -0.955716 3.421902 -3.791152 2.057035 1.928064 1.862635 0.208559 -3.596378 0.000000 0.000000 0.000000 1.877539 0.226432 -3.587913 0.016665 -3.049434 0.004049 5.628732 4.096247 0.149510 0.000000 0.000000 -0.000000 3.318908 -13.200825 -8.955622 0.000000 0.000000 0.000000 12.731990 32.102907 -77.867510 0.000005 -37.603600 0.000015 10.795354 5.116864 -3.465667 -6.694214 7.651553 20.054316 11.567922 23.609032 -7.393747 5.302703 8.250673 -3.166443 0.000001 0.000003 0.000001 -0.987182 -2.602660 -15.840554 0.762411 3.154233 -27.170513 0.348205 2.165912 -18.263786 0.000001 0.000001 -0.000001 -0.146219 0.707057 -18.782508 0.628360 2.878509 -24.623462 0.506834 2.597355 -22.079807 0.000000 -0.000001 -0.000000 0.775201 3.367811 -19.567969 1.233929 3.938208 -34.782223 0.010625 0.383158 -3.176665 -0.000000 0.000000 0.000002 3.962188 12.657804 -18.441582 1.308459 -0.041857 -36.064621 0.763495 3.156338 -27.190158 -0.000000 0.000000 0.000001 1.454903 14.165860 8.533176 0.000000 0.000000 0.000000 54.818719 17.557865 70.062359 0.000005 75.912198 0.000012 50.633791 35.802964 -69.087152 1.823104 4.569992 9.855966 4.626448 -8.603861 -0.227175 -8.052948 19.681656 -1.476572 0.000003 -0.000002 -0.000002 8.248171 12.701430 -38.429718 0.251170 -1.855528 15.416447 0.227079 -1.765861 14.653793 0.000001 -0.000000 0.000000 3.638036 8.218629 -29.430653 0.523464 -2.651348 22.332762 2.169808 -0.024065 0.287849 0.000004 0.000000 0.000000 1.434010 5.019220 -20.901683 0.132906 -1.355689 11.197508 -0.725082 -0.342191 2.538153 -0.000001 0.000001 0.000001 -3.501101 -9.709324 -18.829744 0.124327 -1.311670 10.829407 0.089477 -1.114126 9.182487 0.000001 0.000001 0.000002 -5.909472 1.080617 -17.484760 19.896751 9.862242 4.398435 -15.083129 15.698992 7.936888 -7.850185 0.000008 -0.000001 -0.000000 -0.000000 0.000000 -25.312906 -3.870879 -0.244769 24.691815 -9.768701 -3.175735 1.548896 -16.236048 -2.449836 -0.200196 0.000012 -0.000001 0.000000 0.000002 0.000000 
0.553715 112.962006 1.579648 -2.799252 -0.974907 3.449012 -3.834955 2.071343 1.945739 1.877778 0.209558 -3.619556 0.000000 0.000000 0.000000 1.892845 0.227624 -3.610928 0.026440 -3.051732 0.011327 5.624674 4.084378 0.175620 -0.000000 0.000000 -0.000000 3.362986 -13.321775 -8.988033 0.000000 0.000000 0.000000 12.831987 32.035752 -77.788540 0.000003 -37.677294 -0.000018 10.468723 5.116995 -3.597183 -6.697703 7.641063 20.056173 11.567876 23.608907 -7.393681 5.303653 8.252845 -3.166964 0.000001 0.000000 0.000000 -0.989588 -2.601596 -15.873056 0.762410 3.154227 -27.170470 0.348197 2.165909 -18.263760 -0.000000 -0.000001 0.000001 -0.151404 0.693352 -18.801848 0.628218 2.878208 -24.620687 0.506938 2.597595 -22.081978 -0.000000 -0.000001 -0.000002 0.773645 3.361980 -19.594013 1.233935 3.938223 -34.782380 0.010615 0.382977 -3.175152 -0.000000 0.000000 0.000000 3.956802 12.642907 -18.440932 1.308768 -0.041429 -36.069000 0.763504 3.156359 -27.190334 -0.000000 0.000000 0.000001 1.454657 14.189415 8.551600 0.000000 0.000000 0.000000 54.897331 17.361561 69.904145 0.000054 76.243093 -0.000032 50.198779 36.073221 -68.237661 1.834427 4.526488 9.947607 4.621981 -8.591965 -0.228038 -8.126429 19.931216 -1.460113 0.000001 -0.000001 -0.000001 8.273451 12.732378 -38.431022 0.242928 -1.825320 15.159142 0.221613 -1.744888 14.475896 -0.000001 0.000001 -0.000001 3.741510 8.332687 -29.765824 0.507807 -2.612983 21.992215 2.193893 -0.004605 0.055365 -0.000000 -0.000002 -0.000001 1.464245 5.073225 -21.083628 0.128145 -1.331418 10.994425 -0.727477 -0.319090 2.366312 0.000001 -0.000001 -0.000000 -3.546710 -9.728980 -19.006019 0.123520 -1.307331 10.792822 0.089096 -1.111880 9.163862 0.000003 0.000000 0.000000 -5.863322 1.054100 -17.532378 19.874290 9.861846 4.393510 -15.109955 15.686624 7.954764 -7.939434 0.000010 0.000004 -0.000000 0.000000 0.000000 -25.323678 -3.862028 -0.267787 24.756487 -9.764500 -3.203012 1.505030 -16.277043 -2.417055 -0.194400 0.000005 0.000000 -0.000000 0.000003 0.000000 
